<svg class="google-play-logo" xmlns="http://www.w3.org/2000/svg" width="135" height="40" viewBox="0 0 135 40">
  <defs>
    <linearGradient id="en_svg__a" x1="21.8" y1="193.29" x2="5.02" y2="176.51" gradientTransform="matrix(1 0 0 -1 0 202)" gradientUnits="userSpaceOnUse">
      <stop offset="0" stop-color="#00a0ff"/>
      <stop offset=".01" stop-color="#00a1ff"/>
      <stop offset=".26" stop-color="#00beff"/>
      <stop offset=".51" stop-color="#00d2ff"/>
      <stop offset=".76" stop-color="#00dfff"/>
      <stop offset="1" stop-color="#00e3ff"/>
    </linearGradient>
    <linearGradient id="en_svg__b" x1="33.83" y1="182" x2="9.64" y2="182" gradientTransform="matrix(1 0 0 -1 0 202)" gradientUnits="userSpaceOnUse">
      <stop offset="0" stop-color="#ffe000"/>
      <stop offset=".41" stop-color="#ffbd00"/>
      <stop offset=".78" stop-color="orange"/>
      <stop offset="1" stop-color="#ff9c00"/>
    </linearGradient>
    <linearGradient id="en_svg__c" x1="24.83" y1="179.7" x2="2.07" y2="156.95" gradientTransform="matrix(1 0 0 -1 0 202)" gradientUnits="userSpaceOnUse">
      <stop offset="0" stop-color="#ff3a44"/>
      <stop offset="1" stop-color="#c31162"/>
    </linearGradient>
    <linearGradient id="en_svg__d" x1="7.3" y1="201.82" x2="17.46" y2="191.66" gradientTransform="matrix(1 0 0 -1 0 202)" gradientUnits="userSpaceOnUse">
      <stop offset="0" stop-color="#32a071"/>
      <stop offset=".07" stop-color="#2da771"/>
      <stop offset=".48" stop-color="#15cf74"/>
      <stop offset=".8" stop-color="#06e775"/>
      <stop offset="1" stop-color="#00f076"/>
    </linearGradient>
  </defs>
  <g>
    <rect width="135" height="40" rx="5" ry="5"/>
    <path d="M130 .8a4.2 4.2 0 0 1 4.2 4.2v30a4.2 4.2 0 0 1-4.2 4.2H5A4.2 4.2 0 0 1 .8 35V5A4.2 4.2 0 0 1 5 .8h125m0-.8H5a5 5 0 0 0-5 5v30a5 5 0 0 0 5 5h125a5 5 0 0 0 5-5V5a5 5 0 0 0-5-5z" fill="#a6a6a6"/>
    <path d="M47.42 10.24a2.71 2.71 0 0 1-.75 2 2.91 2.91 0 0 1-2.2.89A3.09 3.09 0 0 1 41.35 10a3.09 3.09 0 0 1 3.12-3.13 3.1 3.1 0 0 1 1.23.25 2.47 2.47 0 0 1 .94.67l-.53.53a2 2 0 0 0-1.64-.71A2.32 2.32 0 0 0 42.14 10a2.36 2.36 0 0 0 4 1.73 1.89 1.89 0 0 0 .5-1.22h-2.17v-.72h2.91a2.54 2.54 0 0 1 .04.45zM52 7.74h-2.7v1.9h2.46v.72H49.3v1.9H52V13h-3.5V7H52zM55.28 13h-.77V7.74h-1.68V7H57v.74h-1.72zM59.94 13V7h.77v6zM64.13 13h-.77V7.74h-1.68V7h4.12v.74h-1.67zM73.61 12.22a3.12 3.12 0 0 1-4.4 0 3.07 3.07 0 0 1-.88-2.22 3.07 3.07 0 0 1 .88-2.22 3.1 3.1 0 0 1 4.4 0 3.07 3.07 0 0 1 .88 2.22 3.07 3.07 0 0 1-.88 2.22zm-3.83-.5a2.31 2.31 0 0 0 3.26 0 2.35 2.35 0 0 0 .67-1.72A2.35 2.35 0 0 0 73 8.28a2.31 2.31 0 0 0-3.26 0 2.35 2.35 0 0 0-.63 1.72 2.35 2.35 0 0 0 .67 1.72zM75.58 13V7h.94l2.92 4.67V7h.77v6h-.8l-3.06-4.89V13z" fill="#fff" stroke="#fff" stroke-miterlimit="10" stroke-width=".2"/>
    <path d="M68.14 21.75A4.25 4.25 0 1 0 72.41 26a4.19 4.19 0 0 0-4.27-4.25zm0 6.83a2.58 2.58 0 1 1 2.4-2.58 2.46 2.46 0 0 1-2.4 2.58zm-9.31-6.83A4.25 4.25 0 1 0 63.09 26a4.19 4.19 0 0 0-4.27-4.25zm0 6.83A2.58 2.58 0 1 1 61.22 26a2.46 2.46 0 0 1-2.4 2.58zm-11.09-5.52v1.8h4.32a3.77 3.77 0 0 1-1 2.27 4.42 4.42 0 0 1-3.33 1.32 4.8 4.8 0 0 1 0-9.6A4.6 4.6 0 0 1 51 20.14l1.27-1.27A6.29 6.29 0 0 0 47.74 17a6.61 6.61 0 1 0 0 13.21 6 6 0 0 0 4.61-1.85 6 6 0 0 0 1.56-4.22 5.87 5.87 0 0 0-.1-1.13zm45.31 1.4a4 4 0 0 0-3.64-2.71 4 4 0 0 0-4 4.25 4.16 4.16 0 0 0 4.22 4.25 4.23 4.23 0 0 0 3.54-1.88l-1.45-1a2.43 2.43 0 0 1-2.09 1.18 2.16 2.16 0 0 1-2.06-1.29l5.69-2.35zm-5.8 1.42a2.33 2.33 0 0 1 2.22-2.48 1.65 1.65 0 0 1 1.58.9zM82.63 30h1.87V17.5h-1.87zm-3.06-7.3h-.07a3 3 0 0 0-2.24-1 4.26 4.26 0 0 0 0 8.51 2.9 2.9 0 0 0 2.24-1h.06v.61c0 1.63-.87 2.5-2.27 2.5a2.35 2.35 0 0 1-2.14-1.51l-1.63.68A4.05 4.05 0 0 0 77.29 34c2.19 0 4-1.29 4-4.43V22h-1.72zm-2.14 5.88a2.59 2.59 0 0 1 0-5.16A2.4 2.4 0 0 1 79.7 26a2.38 2.38 0 0 1-2.28 2.58zm24.38-11.08h-4.48V30h1.87v-4.74h2.61a3.89 3.89 0 1 0 0-7.76zm0 6H99.2v-4.26h2.65a2.14 2.14 0 1 1 0 4.29zm11.53-1.8a3.5 3.5 0 0 0-3.33 1.91l1.66.69a1.77 1.77 0 0 1 1.7-.92 1.8 1.8 0 0 1 2 1.61v.13a4.13 4.13 0 0 0-1.95-.48c-1.79 0-3.6 1-3.6 2.81a2.89 2.89 0 0 0 3.1 2.75 2.63 2.63 0 0 0 2.4-1.2h.06v1h1.8v-4.81c0-2.19-1.66-3.46-3.79-3.46zm-.23 6.85c-.61 0-1.46-.31-1.46-1.06 0-1 1.06-1.33 2-1.33a3.32 3.32 0 0 1 1.7.42 2.26 2.26 0 0 1-2.19 2zM123.74 22l-2.14 5.42h-.06L119.32 22h-2l3.33 7.58-1.9 4.21h1.95L125.82 22zm-16.81 8h1.87V17.5h-1.87z" fill="#fff"/>
    <path d="M10.44 7.54a2 2 0 0 0-.44 1.4v22.12a2 2 0 0 0 .46 1.4l.07.07L22.9 20.15v-.29L10.51 7.47z" fill="url(#en_svg__a)"/>
    <path d="M27 24.28l-4.1-4.13v-.29l4.1-4.14.09.05L32 18.56c1.4.79 1.4 2.09 0 2.89l-4.89 2.78z" fill="url(#en_svg__b)"/>
    <path d="M27.12 24.23L22.9 20 10.44 32.46a1.63 1.63 0 0 0 2.08.06l14.61-8.3" fill="url(#en_svg__c)"/>
    <path d="M27.12 15.78l-14.61-8.3a1.63 1.63 0 0 0-2.08.06L22.9 20z" fill="url(#en_svg__d)"/>
    <path d="M27 24.13l-14.49 8.25a1.67 1.67 0 0 1-2 0l-.07.07.07.07a1.66 1.66 0 0 0 2 0l14.61-8.3z" style="isolation:isolate" opacity=".2"/>
    <path d="M10.44 32.32a2 2 0 0 1-.46-1.4v.15a2 2 0 0 0 .46 1.4l.07-.07zM32 21.3l-5 2.83.09.09L32 21.44A1.75 1.75 0 0 0 33 20a1.86 1.86 0 0 1-1 1.3z" style="isolation:isolate" opacity=".12"/>
    <path d="M12.51 7.62L32 18.7a1.86 1.86 0 0 1 1 1.3 1.75 1.75 0 0 0-1-1.44L12.51 7.48C11.12 6.68 10 7.34 10 8.94v.15c0-1.6 1.12-2.26 2.51-1.47z" style="isolation:isolate" fill="#fff" opacity=".25"/>
  </g>
</svg>
